# xmcd
#
# Track frame offsets:
#	150
#	17452
#	26230
#	52757
#	67207
#	80190
#	97352
#	116307
#	138595
#	155195
#	169917
#
# Disc length: 2461 seconds
#
# Revision: 0
# Processed by: cddbd v1.5.1PL2 Copyright (c) Steve Scherf et al.
# Submitted via: dBpowerAMP V4.0
#
DISCID=9d099b0b
DTITLE=G Men - Red Dirt Blues
DYEAR=1900
DGENRE=Blues
TTITLE0=Country Two-Step
TTITLE1=It's Comin'
TTITLE2=As Far Away
TTITLE3=Take It Easy
TTITLE4=Dangerous Liason
TTITLE5=A Small Romance
TTITLE6=Watch That Child
TTITLE7=A Cold Day In Nowhere
TTITLE8=Denham Breakdown
TTITLE9=I'm Still Out There
TTITLE10=Let Love Carry You
EXTD=
EXTT0=
EXTT1=
EXTT2=
EXTT3=
EXTT4=
EXTT5=
EXTT6=
EXTT7=
EXTT8=
EXTT9=
EXTT10=
PLAYORDER=
